<?xml version="1.0" encoding="utf-8"?>
<!-- Generator: Adobe Illustrator 27.5.0, SVG Export Plug-In . SVG Version: 6.00 Build 0)  -->
<svg version="1.1" xmlns="http://www.w3.org/2000/svg" xmlns:xlink="http://www.w3.org/1999/xlink" x="0px" y="0px"
	 viewBox="0 0 1200 800" style="enable-background:new 0 0 1200 800;" xml:space="preserve">
<g id="Background">
	<linearGradient id="SVGID_1_" gradientUnits="userSpaceOnUse" x1="100" y1="900" x2="1100" y2="-100">
		<stop  offset="0" style="stop-color:#D4D9FA"/>
		<stop  offset="0.998" style="stop-color:#F0C7FF"/>
	</linearGradient>
	<rect style="fill:url(#SVGID_1_);" width="1200" height="800"/>
</g>
<g id="Graphic_Elements">
	<g>
		<defs>
			<rect id="SVGID_00000175312374021172508950000015873819574371884220_" width="1200" height="800"/>
		</defs>
		<clipPath id="SVGID_00000114050844206133810520000001476596212822224818_">
			<use xlink:href="#SVGID_00000175312374021172508950000015873819574371884220_"  style="overflow:visible;"/>
		</clipPath>
		<g style="clip-path:url(#SVGID_00000114050844206133810520000001476596212822224818_);">
			<g>
				
					<linearGradient id="SVGID_00000089549671210014297620000017897447269832675235_" gradientUnits="userSpaceOnUse" x1="839.9476" y1="-35.6517" x2="1503.8018" y2="-35.6517">
					<stop  offset="0" style="stop-color:#3A0BC7"/>
					<stop  offset="1" style="stop-color:#F190FC"/>
				</linearGradient>
				<path style="fill:url(#SVGID_00000089549671210014297620000017897447269832675235_);" d="M1496.387-137.301l-0.434-0.434
					c-9.887-9.885-25.916-9.884-35.802,0.002l-4.25,4.25c-9.887,9.886-25.915,9.887-35.802,0.002l-0.434-0.434
					c-9.888-9.885-25.917-9.884-35.803,0.002l-38.328,38.328c-10.006,10.006-26.229,10.006-36.235,0l0,0
					c-10.006-10.006-10.006-26.229,0-36.235l56.647-56.647c9.886-9.886,9.886-25.914-0.001-35.8l-0.434-0.434
					c-9.887-9.886-25.916-9.885-35.802,0.001l-124.661,124.661c-10.006,10.006-26.229,10.006-36.235,0l0,0
					c-10.006-10.006-10.006-26.229,0-36.235l124.662-124.662c9.886-9.886,9.886-25.915,0-35.801l-0.434-0.434
					c-9.887-9.886-25.916-9.885-35.802,0.001L971.897-11.827c-10.006,10.006-10.006,26.229,0,36.235h0
					c10.006,10.006,10.006,26.229,0,36.235L847.452,185.088c-10.006,10.006-10.006,26.229,0,36.235l0,0
					c10.006,10.006,26.229,10.006,36.235,0l124.445-124.445c10.006-10.006,26.229-10.006,36.235,0v0
					c10.006,10.006,10.006,26.229,0,36.235l-56.429,56.429c-10.006,10.006-10.006,26.229,0,36.235v0
					c10.006,10.006,26.229,10.006,36.235,0l38.114-38.114c10.006-10.006,26.229-10.006,36.235,0l0,0
					c10.006,10.006,26.229,10.006,36.235,0l3.82-3.82c10.006-10.006,26.229-10.006,36.235,0v0c10.006,10.006,26.229,10.006,36.235,0
					L1496.387-101.5C1506.273-111.386,1506.273-127.415,1496.387-137.301z"/>
				
					<linearGradient id="SVGID_00000129166123496112489790000001727651526037673096_" gradientUnits="userSpaceOnUse" x1="780.9118" y1="-108.859" x2="1370.1339" y2="-108.859">
					<stop  offset="0" style="stop-color:#4B4BFA"/>
					<stop  offset="1" style="stop-color:#F190FC"/>
				</linearGradient>
				<path style="fill:url(#SVGID_00000129166123496112489790000001727651526037673096_);" d="M1075.523-25.456L1075.523-25.456
					c9.784,9.784,9.784,25.647,0,35.432l-74.683,74.683c-9.784,9.784-9.784,25.647,0,35.432l0,0c9.784,9.784,9.784,25.647,0,35.431
					l-15.668,15.667c-9.784,9.784-9.784,25.647,0,35.432l0,0c9.784,9.784,25.647,9.784,35.432,0l251.841-251.841
					c9.784-9.784,9.784-25.647,0-35.432l0,0c-9.784-9.784-9.784-25.647,0-35.431l15.668-15.667c9.784-9.784,9.784-25.647,0-35.432v0
					c-9.784-9.784-9.784-25.647,0-35.431l74.683-74.683c9.784-9.784,9.784-25.647,0-35.431l0,0c-9.784-9.784-25.647-9.784-35.432,0
					l-41.909,41.909c-9.784,9.784-25.647,9.784-35.432,0l0,0c-9.784-9.784-25.647-9.784-35.432,0l-54.642,54.642
					c-9.784,9.784-25.647,9.784-35.432,0v0c-9.784-9.784-9.784-25.647,0-35.431l21.868-21.868c9.784-9.784,9.784-25.647,0-35.431
					l0,0c-9.784-9.784-9.784-25.647,0-35.432l44.566-44.566c9.784-9.784,9.784-25.647,0-35.431l0,0
					c-9.784-9.784-25.647-9.784-35.432,0l-44.566,44.566c-9.784,9.784-25.647,9.784-35.431,0l0,0
					c-9.784-9.784-25.647-9.784-35.432,0L788.25-127.931c-9.784,9.784-9.784,25.647,0,35.431l0,0c9.784,9.784,25.647,9.784,35.431,0
					l44.566-44.566c9.784-9.784,25.647-9.784,35.432,0l0,0c9.784,9.784,9.784,25.647,0,35.432l-44.566,44.566
					c-9.784,9.784-9.784,25.647,0,35.432v0c9.784,9.784,9.784,25.647,0,35.431l-21.868,21.868c-9.784,9.784-9.784,25.647,0,35.432
					l0,0c9.784,9.784,25.647,9.784,35.431,0l54.642-54.642c9.784-9.784,25.647-9.784,35.431,0h0c9.784,9.784,25.647,9.784,35.432,0
					l41.909-41.909C1049.875-35.241,1065.739-35.241,1075.523-25.456z"/>
				
					<linearGradient id="SVGID_00000135674558178806282010000006128178314085742247_" gradientUnits="userSpaceOnUse" x1="1126.3229" y1="233.2799" x2="1177.5665" y2="233.2799">
					<stop  offset="0" style="stop-color:#764BFA"/>
					<stop  offset="1" style="stop-color:#F190FC"/>
				</linearGradient>
				<circle style="fill:url(#SVGID_00000135674558178806282010000006128178314085742247_);" cx="1151.945" cy="233.28" r="25.622"/>
				
					<linearGradient id="SVGID_00000110454636733681535750000015320777625761920912_" gradientUnits="userSpaceOnUse" x1="788.7039" y1="102.6871" x2="839.9476" y2="102.6871">
					<stop  offset="0" style="stop-color:#4B4BFA"/>
					<stop  offset="1" style="stop-color:#F190FC"/>
				</linearGradient>
				<circle style="fill:url(#SVGID_00000110454636733681535750000015320777625761920912_);" cx="814.326" cy="102.687" r="25.622"/>
			</g>
			<g>
				
					<linearGradient id="SVGID_00000092438537700658999290000006017649226218022016_" gradientUnits="userSpaceOnUse" x1="-370.378" y1="500.7355" x2="218.8441" y2="500.7355">
					<stop  offset="0" style="stop-color:#F1D8FC"/>
					<stop  offset="1" style="stop-color:#5530C7"/>
				</linearGradient>
				<path style="fill:url(#SVGID_00000092438537700658999290000006017649226218022016_);" d="M-142.175,584.138L-142.175,584.138
					c9.784,9.784,9.784,25.647,0,35.432l-74.683,74.683c-9.784,9.784-9.784,25.647,0,35.432h0c9.784,9.784,9.784,25.647,0,35.432
					l-15.667,15.667c-9.784,9.784-9.784,25.647,0,35.432l0,0c9.784,9.784,25.647,9.784,35.432,0L54.748,564.374
					c9.784-9.784,9.784-25.647,0-35.432l0,0c-9.784-9.784-9.784-25.647,0-35.432l15.667-15.668c9.784-9.784,9.784-25.647,0-35.431v0
					c-9.784-9.784-9.784-25.647,0-35.432l74.683-74.683c9.784-9.784,9.784-25.647,0-35.432l0,0c-9.784-9.784-25.647-9.784-35.431,0
					l-41.909,41.909c-9.784,9.784-25.647,9.784-35.431,0l0,0c-9.784-9.784-25.647-9.784-35.432,0l-54.642,54.642
					c-9.784,9.784-25.647,9.784-35.431,0l0,0c-9.784-9.784-9.784-25.647,0-35.432l21.868-21.868c9.784-9.784,9.784-25.647,0-35.432
					h0c-9.784-9.784-9.784-25.647,0-35.432l44.566-44.566c9.784-9.784,9.784-25.647,0-35.432v0c-9.784-9.784-25.647-9.784-35.432,0
					l-44.566,44.566c-9.784,9.784-25.647,9.784-35.432,0l0,0c-9.784-9.784-25.647-9.784-35.432,0l-251.841,251.841
					c-9.784,9.784-9.784,25.647,0,35.432l0,0c9.784,9.784,25.647,9.784,35.432,0l44.566-44.566c9.784-9.784,25.647-9.784,35.431,0h0
					c9.784,9.784,9.784,25.647,0,35.432l-44.566,44.566c-9.784,9.784-9.784,25.647,0,35.432l0,0c9.784,9.784,9.784,25.647,0,35.432
					l-21.868,21.868c-9.784,9.784-9.784,25.647,0,35.432l0,0c9.784,9.784,25.647,9.784,35.432,0l54.642-54.642
					c9.784-9.784,25.647-9.784,35.432,0l0,0c9.784,9.784,25.647,9.784,35.432,0l41.909-41.909
					C-167.822,574.354-151.959,574.354-142.175,584.138z"/>
				
					<linearGradient id="SVGID_00000183957555579482932170000017007467679442406309_" gradientUnits="userSpaceOnUse" x1="180.5049" y1="982.863" x2="700.7113" y2="982.863">
					<stop  offset="0" style="stop-color:#442AFF"/>
					<stop  offset="0.9992" style="stop-color:#B690FC"/>
				</linearGradient>
				<path style="fill:url(#SVGID_00000183957555579482932170000017007467679442406309_);" d="M206.264,1046.666l-18.254,18.255
					c-10.006,10.006-10.006,26.229,0,36.235h0c10.006,10.006,26.229,10.006,36.235,0l69.948-69.948
					c10.006-10.006,26.229-10.006,36.235,0l0,0c10.006,10.006,10.006,26.229,0,36.235l-69.948,69.948
					c-10.006,10.006-10.006,26.229,0,36.235v0c10.006,10.006,26.229,10.006,36.235,0l38.898-38.899
					c10.006-10.006,26.229-10.006,36.235,0v0c10.006,10.006,10.006,26.229,0,36.235l-69.459,69.459
					c-10.006,10.006-10.006,26.229,0,36.235l0,0c10.006,10.006,26.229,10.006,36.235,0l285.126-285.126
					c10.006-10.006,10.006-26.229,0-36.235l0,0c-10.006-10.006-10.006-26.229,0-36.235l69.459-69.459
					c10.006-10.006,10.006-26.229,0-36.235h0c-10.006-10.006-26.229-10.006-36.235,0l-38.898,38.898
					c-10.006,10.006-26.229,10.006-36.235,0l0,0c-10.006-10.006-10.006-26.229,0-36.235l69.948-69.948
					c10.006-10.006,10.006-26.229,0-36.235l0,0c-10.006-10.006-26.229-10.006-36.235,0l-69.948,69.948
					c-10.006,10.006-26.229,10.006-36.235,0l0,0c-10.006-10.006-10.006-26.229,0-36.235l18.255-18.255
					c10.006-10.006,10.006-26.229,0-36.235h0c-10.006-10.006-26.229-10.006-36.235,0L206.264,974.197
					c-10.006,10.006-10.006,26.229,0,36.235v0C216.27,1020.437,216.27,1036.66,206.264,1046.666z"/>
				
					<linearGradient id="SVGID_00000013889159322647137790000018180602300747088262_" gradientUnits="userSpaceOnUse" x1="-52.4613" y1="911.7469" x2="476.3531" y2="911.7469">
					<stop  offset="0" style="stop-color:#F190FC"/>
					<stop  offset="1" style="stop-color:#764BFA"/>
				</linearGradient>
				<path style="fill:url(#SVGID_00000013889159322647137790000018180602300747088262_);" d="M84.98,1148.423l26.147-26.147
					c10.006-10.006,26.229-10.006,36.235,0h0c10.006,10.006,26.229,10.006,36.235,0l285.342-285.342
					c9.886-9.886,9.886-25.915,0-35.801l-0.434-0.434c-9.886-9.886-25.915-9.886-35.801,0l-26.364,26.364
					c-10.006,10.006-26.229,10.006-36.235,0l0,0c-10.006-10.006-10.006-26.229,0-36.235l7.576-7.576
					c9.886-9.886,9.886-25.915,0-35.801l-0.434-0.434c-9.886-9.886-9.886-25.915,0-35.801h0c9.886-9.886,9.886-25.915,0-35.801
					l-0.434-0.434c-9.886-9.886-25.915-9.886-35.801,0l-28.592,28.592c-9.886,9.886-25.915,9.886-35.801,0l-0.434-0.434
					c-9.886-9.886-25.915-9.886-35.801,0L-44.957,988.482c-10.006,10.006-10.006,26.229,0,36.235h0
					c10.006,10.006,26.229,10.006,36.235,0l28.592-28.592c9.766-9.766,25.601-9.766,35.367,0l0.868,0.867
					c9.766,9.766,9.766,25.601,0,35.367l0,0c-10.006,10.006-10.006,26.229,0,36.235l0,0c10.006,10.006,10.006,26.229,0,36.235
					l-7.359,7.359c-10.006,10.006-10.006,26.229,0,36.235h0C58.751,1158.429,74.974,1158.429,84.98,1148.423z"/>
				
					<linearGradient id="SVGID_00000168085188176158540960000008724968041961783708_" gradientUnits="userSpaceOnUse" x1="-402.3828" y1="840.787" x2="256.6335" y2="840.787">
					<stop  offset="0" style="stop-color:#F190FC"/>
					<stop  offset="1" style="stop-color:#4441FA"/>
				</linearGradient>
				<path style="fill:url(#SVGID_00000168085188176158540960000008724968041961783708_);" d="M-255.056,911.706l-139.822,139.822
					c-10.006,10.006-10.006,26.229,0,36.235l0,0c10.006,10.006,26.229,10.006,36.235,0l55.709-55.709
					c10.006-10.006,26.229-10.006,36.235,0l0,0c10.006,10.006,10.006,26.229,0,36.235l-78.358,78.358
					c-10.006,10.006-10.006,26.229,0,36.235l0,0c10.006,10.006,26.229,10.006,36.235,0l16.221-16.221
					c10.006-10.006,26.229-10.006,36.235,0l0,0c10.006,10.006,26.229,10.006,36.235,0l34.482-34.481
					c10.006-10.006,26.229-10.006,36.235,0l0.877,0.877c9.522,9.522,9.522,24.96,0,34.481v0c-10.006,10.006-10.006,26.229,0,36.235
					l0,0c10.006,10.006,26.229,10.006,36.235,0l361.617-361.617c9.764-9.764,9.764-25.594,0-35.358l-0.877-0.877
					c-9.764-9.764-9.764-25.594,0-35.358l0,0c9.764-9.764,9.764-25.594,0-35.358l-0.877-0.877c-9.764-9.764-25.594-9.764-35.358,0
					l-35.358,35.358c-9.764,9.764-25.594,9.764-35.358,0l-0.877-0.877c-9.764-9.764-25.594-9.764-35.358,0l-16.659,16.659
					c-10.006,10.006-26.229,10.006-36.235,0l0,0c-10.006-10.006-10.006-26.229,0-36.235l78.797-78.797
					c9.764-9.764,9.764-25.594,0-35.358l-0.877-0.877c-9.764-9.764-25.594-9.764-35.358,0L38.769,690.35
					c-10.006,10.006-26.229,10.006-36.235,0h0c-10.006-10.006-10.006-26.229,0-36.235l140.261-140.26
					c9.764-9.764,9.764-25.594,0-35.358l-0.877-0.877c-9.764-9.764-25.594-9.764-35.358,0l-361.617,361.617
					c-10.006,10.006-10.006,26.229,0,36.235l0,0C-245.05,885.477-245.05,901.7-255.056,911.706z"/>
				
					<linearGradient id="SVGID_00000090267221487205583220000011697904960746456497_" gradientUnits="userSpaceOnUse" x1="129.2612" y1="609.6596" x2="180.5048" y2="609.6596">
					<stop  offset="0" style="stop-color:#764BFA"/>
					<stop  offset="1" style="stop-color:#F190FC"/>
				</linearGradient>
				<circle style="fill:url(#SVGID_00000090267221487205583220000011697904960746456497_);" cx="154.883" cy="609.66" r="25.622"/>
				
					<linearGradient id="SVGID_00000106142044992327971960000012719940629602080133_" gradientUnits="userSpaceOnUse" x1="30.7413" y1="301.0227" x2="81.985" y2="301.0227">
					<stop  offset="0" style="stop-color:#4B4BFA"/>
					<stop  offset="1" style="stop-color:#F190FC"/>
				</linearGradient>
				<circle style="fill:url(#SVGID_00000106142044992327971960000012719940629602080133_);" cx="56.363" cy="301.023" r="25.622"/>
				
					<linearGradient id="SVGID_00000119081403521631375140000007452325537660524938_" gradientUnits="userSpaceOnUse" x1="610.3926" y1="918.6762" x2="1274.2468" y2="918.6762" gradientTransform="matrix(0 1 1 0 -4.855 4.855)">
					<stop  offset="0" style="stop-color:#3A52C7"/>
					<stop  offset="1" style="stop-color:#F190FC"/>
				</linearGradient>
				<path style="fill:url(#SVGID_00000119081403521631375140000007452325537660524938_);" d="M812.172,1271.687l-0.434-0.434
					c-9.885-9.888-9.884-25.916,0.002-35.802l4.25-4.25c9.886-9.887,9.887-25.915,0.002-35.802l-0.434-0.434
					c-9.885-9.888-9.884-25.917,0.002-35.803l38.328-38.328c10.006-10.006,10.006-26.229,0-36.235l0,0
					c-10.006-10.006-26.229-10.006-36.235,0l-56.647,56.647c-9.886,9.886-25.914,9.886-35.8-0.001l-0.434-0.434
					c-9.886-9.887-9.885-25.916,0.001-35.802l124.661-124.661c10.006-10.006,10.006-26.229,0-36.235l0,0
					c-10.006-10.006-26.229-10.006-36.235,0l-124.662,124.662c-9.886,9.886-25.915,9.886-35.801,0l-0.434-0.434
					c-9.886-9.887-9.885-25.916,0.001-35.802l285.341-285.342c10.006-10.006,26.229-10.006,36.235,0v0
					c10.006,10.006,26.229,10.006,36.235,0l124.445-124.445c10.006-10.006,26.229-10.006,36.235,0l0,0
					c10.006,10.006,10.006,26.229,0,36.235L1046.35,783.432c-10.006,10.006-10.006,26.229,0,36.235l0,0
					c10.006,10.006,26.229,10.006,36.235,0l56.429-56.429c10.006-10.006,26.229-10.006,36.235,0h0
					c10.006,10.006,10.006,26.229,0,36.235l-38.114,38.114c-10.006,10.006-10.006,26.229,0,36.235l0,0
					c10.006,10.006,10.006,26.229,0,36.235l-3.82,3.82c-10.006,10.006-10.006,26.229,0,36.235h0
					c10.006,10.006,10.006,26.229,0,36.235l-285.343,285.342C838.087,1281.573,822.058,1281.573,812.172,1271.687z"/>
				
					<linearGradient id="SVGID_00000138550997982156397170000007644646208554561710_" gradientUnits="userSpaceOnUse" x1="969.4612" y1="715.489" x2="1020.7049" y2="715.489">
					<stop  offset="0" style="stop-color:#764BFA"/>
					<stop  offset="1" style="stop-color:#F190FC"/>
				</linearGradient>
				<circle style="fill:url(#SVGID_00000138550997982156397170000007644646208554561710_);" cx="995.083" cy="715.489" r="25.622"/>
			</g>
		</g>
	</g>
</g>
</svg>
